<!-- BTE hearing aid device, isolated from the Google Noto Emoji
     "ear with hearing aid" glyph (ear removed). 
     Source: https://github.com/googlefonts/noto-emoji  License: CC-BY 4.0.
     See ATTRIBUTION.md. -->
<svg xmlns="http://www.w3.org/2000/svg" width="300" height="300" viewBox="0 0 128 128"><circle cx="97.4" cy="28.1" r="10.1" fill="#607D8B"/><path fill="#607D8B" d="M77.9 17.9c-2-1.2-1.7-3.8-.5-5.8l3-4.5c.6-.9 1.7-1.2 2.6-.7l2.9 1.4c1 .5 1.4 1.8.8 2.8l-3 5.2c-1.1 2.1-3.8 2.8-5.8 1.6"/><path fill="#B0BEC5" d="M83.1 11.3C69.4 5.3 57.8 5.9 50.6 7c-2 .3-13.6 3-13.6 3c-1.8.3-2.6 1.8-2.3 3.6l1.4 9.5c.3 1.8 1.5 2.9 3.3 2.7l4-.6v5.9l29.3 25.1c2.3 8.7 10.2 15.2 19.7 15.2c11.2 0 20.4-7.4 19.3-24.5c-.7-9.6-5.1-25.2-28.6-35.6"/><path fill="#607D8B" d="M101.1 65.5s1.6-7.2.7-15.9c-1.8-17-14.3-39.4-39.4-38.3c-8 .3-16.5 3.6-23.1 9.2c.3 1.8 36.9 33.1 36.9 33.1c1.1 4.2 13.9 17.7 16.1 17.7c7 0 13.2-2.9 16.6-9.3v-.2c-1.7 2.6-7.8 3.7-7.8 3.7"/><path fill="#C9E3E6" d="M105.7 53.1c-2.6-2.6-1.9-11.9-5.2-20.2c-2.1-5.2-4.3-9-8.1-13c2.1-.1 8.1 4.2 12.9 13.5s5.5 17.9 3.3 20c-.7.7-2 .5-2.7-.2c-.1 0-.2 0-.2-.1"/><clipPath id="SVGJGrg6ASx"><use href="#SVGQdX6eeFo"/></clipPath><clipPath id="SVG5qonHcao"><use href="#SVG4SFzBe8N"/></clipPath><path fill="#607D8B" d="M52.3 70.7c-2.5-3.2-11.2-5.8-11.2-5.8c-.5.7-3.3 4.4-3.5 6.1s-.2 3.5.2 5.2c1.5 5.6-.3 9.1-.3 9.1s2.1 3.2 8.7 2.8c5.6-.4 8.8-4.8 8.8-10.4c0-2.7-1-5.2-2.7-7"/><path fill="#B0BEC5" d="M52.3 70.7c-2.5-3.2-11.2-5.8-11.2-5.8c-.5.7-1 1.3-1.6 1.9c-.9 1.1-2.3 2.2-1.7 3.9c.3.8.9 1.6 1.4 2.3c1.7 2.2 0 9.2 5.7 11.6C52.8 88 55 80.3 55 77.7c0-2.7-1-5.2-2.7-7"/><path fill="#B9E4EA" d="M35.3 70.5c-5.3-5.3-25.5-19.8-18-42.2c4.9-14.9 18.3-16.9 18.3-16.9l2.1 9.3c-4.8 2-8.9 6.7-10.3 11.2c-5.6 16.8 10.8 26.1 14 32.5z" opacity=".6"/><path fill="none" stroke="#546E7A" stroke-miterlimit="10" stroke-width="3" d="M36.1 16.2s-11 4.1-13.8 13.9c-5 17.4 6.2 27.6 16.9 38.3"/><path fill="#2686C6" d="m34.8 12.5l1.7 7.6c-4.6 2.2-8.6 6.7-10.1 11.4c-4.3 12.9 3.7 21.4 9.6 27.7c1.8 1.9 3.3 3.5 4.2 4.9L35.3 69c-.5-.5-1.1-1-1.7-1.5c-7.1-6.4-21.8-19.7-15.4-39c4-12.1 13.6-15.2 16.6-16m.8-1.1s-13.4 1.9-18.3 16.9C9.9 50.7 30 65.1 35.3 70.5l6-6.2c-3.2-6.4-19.6-15.7-14-32.5c1.5-4.5 5.6-9.1 10.3-11.2z"/><path fill="#78909C" d="M45.2 17.4c-7.5 4.4-9.1 7.1-9.1 7.1s-3.5-5.5-4-7.5s-1.1-4.6 1.5-6l4.9-1.7c1.7-.6 3.5.2 4.3 1.8zM34.4 70.6l2.5 3.5c.3.4.8.4 1.2.1l7-7.1c.3-.3.3-.8 0-1.1l-3.3-2.8c-.5-.5-1.3-.4-1.8.1L34.6 69c-.5.4-.5 1.1-.2 1.6"/><path fill="#C9E3E6" d="M34.4 13c-1.5.7-.8 3.4.4 3.1s4.5-.9 6.1-1.5c.3-.1 1.5-.7 1.2-1.8c-.5-1.6-1.4-2.1-2.7-1.8c-1.7.6-3.6 1.3-5 2"/><path fill="#B0BEC5" d="M104.6 22.6c.1-.1 0-.3-.1-.4c-.5-1.2-2.2-2.2-3.3-2.7A5.7 5.7 0 0 0 98 19c.9.9 1.3 1.5 2.5 1.7c1.8.3 2.7.7 4.1 1.9M81.3 7.5c-.2.2-.3.5-.2.8s.4.4.7.5c1 .4 2.1.8 3.2 1.2c.3.1.6.2.9.2h.2c.1-.1.1-.1.1-.2c0-.2-.1-.5-.3-.7s-.3-.3-.5-.4L83 7.7c-.5-.2-1.2-.8-1.7-.2"/><path fill="#FFF" d="M28.3 18.9c-.7 1.4-2.3 2.8-3.3 4.1c-2.5 3.2-4.1 7.4-4.8 11.3c-.6 3.2-1.6 3.1-2.1 1.8c-1-2.5-.3-5.4.6-7.9s2.3-5.3 3.4-6.6c1.1-1.4 2.4-2.8 4.4-3.9c1.8-1.2 2 .9 1.8 1.2"/></svg>